<svg width="114" height="33" viewBox="0 0 114 33" fill="none" xmlns="http://www.w3.org/2000/svg">
<path fill-rule="evenodd" clip-rule="evenodd" d="M20 8.8C20 11.451 17.851 13.6 15.2 13.6C12.549 13.6 10.4 11.451 10.4 8.8C10.4 6.14903 12.549 4 15.2 4C17.851 4 20 6.14903 20 8.8ZM7.2 17.6C8.96731 17.6 10.4 16.1673 10.4 14.4C10.4 12.6327 8.96731 11.2 7.2 11.2C5.43269 11.2 4 12.6327 4 14.4C4 16.1673 5.43269 17.6 7.2 17.6ZM14.8 20C15.9046 20 16.8 19.1046 16.8 18C16.8 16.8954 15.9046 16 14.8 16C13.6954 16 12.8 16.8954 12.8 18C12.8 19.1046 13.6954 20 14.8 20Z" fill="#007BFF"/>
<path d="M36.06 16.74L36.36 13.96H36.24L35.38 16.2L32.4 21.42H31.52L28.38 16.18L27.5 13.96H27.4L27.8 16.72V24H25.2V10H27.7L31.44 16.4L32.1 18H32.18L32.78 16.36L36.32 10H38.8V24H36.06V16.74ZM41.0761 14.58C41.6094 14.34 42.2428 14.1533 42.9761 14.02C43.7094 13.8733 44.4761 13.8 45.2761 13.8C45.9694 13.8 46.5494 13.8867 47.0161 14.06C47.4828 14.22 47.8494 14.4533 48.1161 14.76C48.3961 15.0667 48.5894 15.4333 48.6961 15.86C48.8161 16.2867 48.8761 16.7667 48.8761 17.3C48.8761 17.8867 48.8561 18.48 48.8161 19.08C48.7761 19.6667 48.7494 20.2467 48.7361 20.82C48.7361 21.3933 48.7561 21.9533 48.7961 22.5C48.8361 23.0333 48.9361 23.54 49.0961 24.02H46.9761L46.5561 22.64H46.4561C46.1894 23.0533 45.8161 23.4133 45.3361 23.72C44.8694 24.0133 44.2628 24.16 43.5161 24.16C43.0494 24.16 42.6294 24.0933 42.2561 23.96C41.8828 23.8133 41.5628 23.6133 41.2961 23.36C41.0294 23.0933 40.8228 22.7867 40.6761 22.44C40.5294 22.08 40.4561 21.68 40.4561 21.24C40.4561 20.6267 40.5894 20.1133 40.8561 19.7C41.1361 19.2733 41.5294 18.9333 42.0361 18.68C42.5561 18.4133 43.1694 18.2333 43.8761 18.14C44.5961 18.0333 45.3961 18 46.2761 18.04C46.3694 17.2933 46.3161 16.76 46.1161 16.44C45.9161 16.1067 45.4694 15.94 44.7761 15.94C44.2561 15.94 43.7028 15.9933 43.1161 16.1C42.5428 16.2067 42.0694 16.3467 41.6961 16.52L41.0761 14.58ZM44.3761 22.02C44.8961 22.02 45.3094 21.9067 45.6161 21.68C45.9228 21.44 46.1494 21.1867 46.2961 20.92V19.62C45.8828 19.58 45.4828 19.5733 45.0961 19.6C44.7228 19.6267 44.3894 19.6867 44.0961 19.78C43.8028 19.8733 43.5694 20.0067 43.3961 20.18C43.2228 20.3533 43.1361 20.5733 43.1361 20.84C43.1361 21.2133 43.2428 21.5067 43.4561 21.72C43.6828 21.92 43.9894 22.02 44.3761 22.02ZM56.578 16.44C56.1646 16.2933 55.7913 16.22 55.458 16.22C54.9913 16.22 54.598 16.3467 54.278 16.6C53.9713 16.84 53.7646 17.1533 53.658 17.54V24H51.058V14H53.078L53.378 15.32H53.458C53.6846 14.8267 53.9913 14.4467 54.378 14.18C54.7646 13.9133 55.218 13.78 55.738 13.78C56.0846 13.78 56.478 13.8533 56.918 14L56.578 16.44ZM61.3697 19.86H60.6697V24H58.0697V10H60.6697V18.26L61.2697 17.98L63.5497 14H66.4097L64.0097 17.8L62.9897 18.56L64.0897 19.34L66.7897 24H63.8097L61.3697 19.86ZM74.0139 24V18.32C74.0139 17.5067 73.8939 16.92 73.6539 16.56C73.4272 16.2 73.0339 16.02 72.4739 16.02C71.9806 16.02 71.5606 16.1667 71.2139 16.46C70.8806 16.74 70.6406 17.0933 70.4939 17.52V24H67.8939V14H69.9539L70.2539 15.32H70.3339C70.6406 14.8933 71.0472 14.52 71.5539 14.2C72.0606 13.88 72.7139 13.72 73.5139 13.72C74.0072 13.72 74.4472 13.7867 74.8339 13.92C75.2206 14.0533 75.5472 14.2733 75.8139 14.58C76.0806 14.8867 76.2806 15.3067 76.4139 15.84C76.5472 16.36 76.6139 17.0067 76.6139 17.78V24H74.0139ZM78.3123 19C78.3123 17.3067 78.7257 16.0067 79.5523 15.1C80.379 14.18 81.539 13.72 83.0323 13.72C83.8323 13.72 84.5257 13.8467 85.1123 14.1C85.699 14.3533 86.1857 14.7133 86.5723 15.18C86.959 15.6333 87.2457 16.1867 87.4323 16.84C87.6323 17.4933 87.7323 18.2133 87.7323 19C87.7323 20.6933 87.319 22 86.4923 22.92C85.679 23.8267 84.5257 24.28 83.0323 24.28C82.2323 24.28 81.539 24.1533 80.9523 23.9C80.3657 23.6467 79.8723 23.2933 79.4723 22.84C79.0857 22.3733 78.7923 21.8133 78.5923 21.16C78.4057 20.5067 78.3123 19.7867 78.3123 19ZM80.9923 19C80.9923 19.44 81.0323 19.8467 81.1123 20.22C81.1923 20.5933 81.3123 20.92 81.4723 21.2C81.6323 21.48 81.839 21.7 82.0923 21.86C82.359 22.0067 82.6723 22.08 83.0323 22.08C83.7123 22.08 84.219 21.8333 84.5523 21.34C84.8857 20.8467 85.0523 20.0667 85.0523 19C85.0523 18.08 84.899 17.34 84.5923 16.78C84.2857 16.2067 83.7657 15.92 83.0323 15.92C82.3923 15.92 81.8923 16.16 81.5323 16.64C81.1723 17.12 80.9923 17.9067 80.9923 19ZM88.4945 14H89.8745V12.12L92.4745 11.38V14H94.9145V16.2H92.4745V20.04C92.4745 20.7333 92.5412 21.2333 92.6745 21.54C92.8212 21.8333 93.0879 21.98 93.4745 21.98C93.7412 21.98 93.9679 21.9533 94.1545 21.9C94.3545 21.8467 94.5745 21.7667 94.8145 21.66L95.2745 23.66C94.9145 23.8333 94.4945 23.98 94.0145 24.1C93.5345 24.22 93.0479 24.28 92.5545 24.28C91.6345 24.28 90.9545 24.0467 90.5145 23.58C90.0879 23.1 89.8745 22.32 89.8745 21.24V16.2H88.4945V14ZM104.41 23.14C104.01 23.46 103.463 23.7333 102.77 23.96C102.09 24.1733 101.363 24.28 100.59 24.28C98.9762 24.28 97.7962 23.8133 97.0495 22.88C96.3029 21.9333 95.9295 20.64 95.9295 19C95.9295 17.24 96.3495 15.92 97.1895 15.04C98.0295 14.16 99.2095 13.72 100.73 13.72C101.236 13.72 101.73 13.7867 102.21 13.92C102.69 14.0533 103.116 14.2733 103.49 14.58C103.863 14.8867 104.163 15.3 104.39 15.82C104.616 16.34 104.73 16.9867 104.73 17.76C104.73 18.04 104.71 18.34 104.67 18.66C104.643 18.98 104.596 19.3133 104.53 19.66H98.5295C98.5695 20.5 98.7829 21.1333 99.1695 21.56C99.5695 21.9867 100.21 22.2 101.09 22.2C101.636 22.2 102.123 22.12 102.55 21.96C102.99 21.7867 103.323 21.6133 103.55 21.44L104.41 23.14ZM100.69 15.8C100.01 15.8 99.5029 16.0067 99.1695 16.42C98.8495 16.82 98.6562 17.36 98.5895 18.04H102.31C102.363 17.32 102.25 16.7667 101.97 16.38C101.703 15.9933 101.276 15.8 100.69 15.8ZM110.706 21.24C110.706 20.9733 110.592 20.76 110.366 20.6C110.139 20.44 109.859 20.2933 109.526 20.16C109.192 20.0267 108.826 19.8933 108.426 19.76C108.026 19.6133 107.659 19.42 107.326 19.18C106.992 18.9267 106.712 18.6133 106.486 18.24C106.259 17.8533 106.146 17.36 106.146 16.76C106.146 15.7733 106.439 15.02 107.026 14.5C107.612 13.98 108.459 13.72 109.566 13.72C110.326 13.72 111.012 13.8 111.626 13.96C112.239 14.12 112.719 14.3 113.066 14.5L112.486 16.38C112.179 16.26 111.792 16.1333 111.326 16C110.859 15.8667 110.386 15.8 109.906 15.8C109.132 15.8 108.746 16.1 108.746 16.7C108.746 16.94 108.859 17.1333 109.086 17.28C109.312 17.4267 109.592 17.5667 109.926 17.7C110.259 17.82 110.626 17.9533 111.026 18.1C111.426 18.2467 111.792 18.44 112.126 18.68C112.459 18.9067 112.739 19.2067 112.966 19.58C113.192 19.9533 113.306 20.4333 113.306 21.02C113.306 22.0333 112.979 22.8333 112.326 23.42C111.686 23.9933 110.719 24.28 109.426 24.28C108.719 24.28 108.052 24.1867 107.426 24C106.812 23.8267 106.312 23.62 105.926 23.38L106.646 21.44C106.952 21.6133 107.359 21.7867 107.866 21.96C108.372 22.12 108.892 22.2 109.426 22.2C109.812 22.2 110.119 22.1267 110.346 21.98C110.586 21.8333 110.706 21.5867 110.706 21.24Z" fill="#007BFF"/>
</svg>
